<svg width="22" height="22" fill="none" xmlns="http://www.w3.org/2000/svg"><path fill-rule="evenodd" clip-rule="evenodd" d="M21.93 4.866a2.6 2.6 0 00-3.674 0l-.265.265a3.453 3.453 0 00-.15-.161l-.81-.81a3.45 3.45 0 00-.162-.15l.265-.266a2.6 2.6 0 000-3.674l-.07-.07-.912.911.07.07a1.31 1.31 0 010 1.852l-.513.513a3.35 3.35 0 00-3.408.813 3.327 3.327 0 00-.953 1.955L9.96 4.724a5.024 5.024 0 00-3.576-1.48 5.03 5.03 0 00-3.576 1.48L1.443 6.09l3.978 3.977-2.133 2.132a6.628 6.628 0 00-1.85 3.555 6.623 6.623 0 00.346 3.552L0 21.089.911 22l1.785-1.784a6.612 6.612 0 003.551.345 6.628 6.628 0 003.555-1.85l2.132-2.132 3.978 3.978 1.363-1.364a5.024 5.024 0 001.481-3.576 5.027 5.027 0 00-1.48-3.576l-1.389-1.388c.738-.09 1.42-.42 1.954-.954a3.35 3.35 0 00.813-3.409l.513-.513a1.31 1.31 0 011.851 0l.07.07.912-.91-.07-.07zm-18.212.77a3.744 3.744 0 012.665-1.104c1.007 0 1.953.392 2.665 1.104L12.25 8.84l-1.168 1.168a2.74 2.74 0 01-1.95.807 2.739 2.739 0 01-1.948-.807L3.266 6.089l.452-.453zm5.415 6.467c.292 0 .58-.031.858-.091a4.044 4.044 0 001.033 3.654l-.627.627-4.69-4.69.626-.626a4.017 4.017 0 002.8 1.126zm-6.097 6.861a5.377 5.377 0 01-.245-3.356l3.601 3.601a5.378 5.378 0 01-3.356-.245zm4.665-.269l-4.396-4.396c.238-.43.537-.831.895-1.19l.595-.595 4.691 4.69-.596.596c-.358.358-.76.657-1.19.895zm9.767-3.078a3.744 3.744 0 01-1.104 2.665l-.453.452-3.918-3.918a2.76 2.76 0 010-3.898l1.168-1.168 3.203 3.202a3.744 3.744 0 011.104 2.665zm-4.257-7.64a2.058 2.058 0 011.454-3.509c.55 0 1.066.214 1.454.603l.81.81a2.058 2.058 0 01-1.453 3.51 2.042 2.042 0 01-1.453-.602l-.812-.812z" fill="#A6A91D"/></svg>